<?xml version="1.0" encoding="UTF-8" standalone="no"?>
<!-- Generator: Adobe Illustrator 25.4.1, SVG Export Plug-In . SVG Version: 6.00 Build 0)  -->

<svg
   version="1.1"
   id="vector"
   x="0px"
   y="0px"
   viewBox="18 20 130.73724 167.82137"
   xml:space="preserve"
   sodipodi:docname="logo-letter.svg"
   inkscape:version="1.1.2 (b8e25be833, 2022-02-05)"
   width="130.73724"
   height="167.82137"
   xmlns:inkscape="http://www.inkscape.org/namespaces/inkscape"
   xmlns:sodipodi="http://sodipodi.sourceforge.net/DTD/sodipodi-0.dtd"
   xmlns="http://www.w3.org/2000/svg"
   xmlns:svg="http://www.w3.org/2000/svg"><defs
   id="defs77"><clipPath
     clipPathUnits="userSpaceOnUse"
     id="clipPath2256"><rect
       style="opacity:0.5;fill:#0000ff;fill-rule:evenodd"
       id="rect2258"
       width="134.82278"
       height="168.76418"
       x="0"
       y="-1.2570896"
       ry="5.0283556" /></clipPath></defs><sodipodi:namedview
   id="namedview75"
   pagecolor="#505050"
   bordercolor="#eeeeee"
   borderopacity="1"
   inkscape:pageshadow="0"
   inkscape:pageopacity="0"
   inkscape:pagecheckerboard="0"
   showgrid="false"
   inkscape:zoom="3.1819549"
   inkscape:cx="91.61035"
   inkscape:cy="49.969282"
   inkscape:window-width="2482"
   inkscape:window-height="1417"
   inkscape:window-x="-8"
   inkscape:window-y="-8"
   inkscape:window-maximized="1"
   inkscape:current-layer="vector"
   fit-margin-top="0"
   fit-margin-left="0"
   fit-margin-right="0"
   fit-margin-bottom="0" />
	<style
   type="text/css"
   id="style2">
	.st0{fill:#125491;}
	.st1{fill:#F87C39;}
</style>
	<g
   id="g10"
   transform="translate(0,0.62854385)">
		<path
   id="path4"
   class="st0"
   transform="translate(18,20)"
   d="m 105.31055,4.2109375 c -17.280015,0 -29.050784,13.4685155 -29.050784,35.2285155 0,8.59 1.739296,18.359688 3.779296,27.679688 -14.959997,13.77 -33.689609,30.791394 -45.599609,42.191409 -1.89,-3.55 -2.759765,-7.55024 -2.759765,-11.990238 0,-16.579999 14.090781,-27.090625 29.050781,-19.390624 l 6.96875,-17.910157 c -25.42,-13.32 -56.638672,4.141403 -56.638672,38.191407 0,10.660002 3.049297,19.839842 8.279297,27.089842 -9.5900014,12.88 -14.0901565,26.78953 -11.9101565,39.51953 H 22.529297 c -2.03,-11.55 1.159922,-20.13109 8.419922,-28.87109 7.41,4.44 16.410078,7.11133 26.580078,7.11133 27.59,0 48.220703,-18.80078 48.220703,-48.550784 0,-8.14 -1.44922,-17.470391 -3.19922,-26.650391 13.37,-13.32 25.41992,-26.788438 25.41992,-41.148437 0,-10.36 -6.54015,-22.5000005 -22.66015,-22.5000005 z m -0.14063,19.8398435 c 3.78,0 4.65039,2.958516 4.65039,5.478516 0,5.18 -3.34101,10.951562 -11.041013,19.101562 -0.72,-4.16 -1.160156,-8.001718 -1.160156,-11.261718 0,-3.4 0.440789,-13.31836 7.550779,-13.31836 z M 83.539062,85.919922 c 0.150003,2.66 0.580079,5.180395 0.580079,7.40039 C 84.109141,109.76031 73.22,122.63086 57.25,122.63086 c -3.92,0 -7.700625,-0.74109 -10.890625,-2.37109 10.6,-9.77 24.249692,-22.059848 37.179687,-34.339848 z" />
		
		
	</g>
	<g
   id="g18"
   transform="translate(0,0.62854385)">
		<path
   id="path12"
   class="st1"
   transform="translate(18,20)"
   d="M 103.55078,1.5800781 C 86.270785,1.5800781 74.5,15.050547 74.5,36.810547 c 0,8.59 1.739297,18.359687 3.779297,27.679687 -14.96,13.77 -33.689611,30.789444 -45.599609,42.189456 -1.890002,-3.55 -2.759766,-7.550237 -2.759766,-11.990237 0,-16.58 14.090781,-27.088672 29.050781,-19.388672 l 6.96875,-17.910156 c -25.42,-13.33 -56.6386718,4.139453 -56.6386718,38.189453 0,10.660002 3.0492968,19.839842 8.2792968,27.089842 -9.5899995,12.88 -14.0901561,26.78953 -11.9101561,39.51953 H 20.769531 c -2.03,-11.55 1.159922,-20.12914 8.419922,-28.86914 7.41,4.44 16.410078,7.10938 26.580078,7.10938 27.59,0 48.220699,-18.79883 48.220699,-48.548831 0,-8.14 -1.45117,-17.47039 -3.20117,-26.65039 13.36,-13.32 25.42188,-26.790391 25.42188,-41.150391 0,-10.36 -6.54016,-22.4999999 -22.66016,-22.4999999 z m -0.15039,19.8398439 c 3.78,0 4.65039,2.960469 4.65039,5.480469 0,5.18 -3.34101,10.949609 -11.041014,19.099609 -0.72,-4.16 -1.160157,-8.009766 -1.160157,-11.259766 0,-3.4 0.440786,-13.320312 7.550781,-13.320312 z m -21.630859,61.86914 c 0.15,2.66 0.580078,5.180391 0.580078,7.400391 0,16.429997 -10.89914,29.310547 -26.86914,29.310547 -3.92,0 -7.700625,-0.73914 -10.890625,-2.36914 10.6,-9.77 24.249687,-22.061793 37.179687,-34.341798 z" />
		
		<path
   id="path16"
   class="st1"
   transform="translate(18,20)"
   d="m 305.71094,35.779297 c -5.95,1.92 -13.65039,9.920703 -13.65039,17.470703 0,3.7 1.89,6.219297 4.5,9.029297 -4.21,9.47 -8.28071,17.911641 -11.47071,23.681641 -10.31,18.210002 -20.33062,28.568362 -26.14062,28.568362 -2.47,0 -5.22883,-1.91922 1.45117,-18.949222 l 7.11914,-17.61914 c 3.05,-7.700002 4.36133,-12.730469 4.36133,-16.730469 0,-7.85 -4.79141,-12.88086 -13.94141,-12.88086 -12.34,0 -23.09031,9.029532 -23.82031,9.769532 l 2.49024,-7.089844 -22.5293,-0.75 -3.45899,8.712891 c 1.71764,-0.570138 3.38643,-0.915374 4.96485,-0.998047 9.23033,-0.483463 15.59949,6.907204 13.55078,16.8125 5.23196,-5.04577 10.46403,-7.50586 13.41406,-7.50586 2.18,0 3.91992,1.179766 3.91992,3.259766 0,2.22 -2.32006,7.849219 -5.08008,14.949219 l -2.17968,5.480468 C 228.90094,117.19023 235.14,129.0293 250.25,129.0293 c 17.43,0 31.37023,-16.58016 42.99023,-37.160159 4.07,-7.25 7.69914,-14.510078 11.61915,-23.830079 3.92,3.400003 7.12109,6.071259 7.12109,9.03125 0,0.74 -0.15055,2.219688 -1.31055,5.179688 L 306,94.240234 c -10.46,26.199996 1.59969,34.789066 12.92969,34.789066 9.09,0 16.76976,-5.66016 23.75976,-14.16016 1.19,9.9 7.97032,14.16016 16.32032,14.16016 16.7,0 31.22015,-17.17016 42.41015,-37.160159 2.9,-5.18 6.68094,-12.879688 10.46094,-20.429688 -0.29,7.4 0.28906,16.579844 0.28906,23.089844 0,14.360003 -2.90078,18.361333 -7.55078,18.361323 -2.03,0 -3.2,-0.59031 -4.5,-2.07031 l -12.7793,8.14063 c 0.15,0.15 6.54102,10.06836 24.54102,10.06836 17.06,0 29.13828,-8.6793 38.48828,-20.5293 2.11,12.79 11.7707,20.5293 29.4707,20.5293 27.88,0 45.60047,-19.39016 55.48047,-37.160159 4.07,-7.25 7.69914,-14.510079 11.61914,-23.830079 3.92,3.400003 7.1211,6.071259 7.1211,9.03125 0,0.74 -0.15055,2.219688 -1.31055,5.179688 l -4.65039,11.990234 c -10.46,26.199996 1.59969,34.789066 12.92969,34.789066 15.98,0 27.59125,-17.47016 38.78125,-37.160159 2.9,-5.18 6.67898,-12.879688 10.45898,-20.429688 -0.29,7.4 0.29102,16.579844 0.29102,23.089844 0,14.360003 -2.90078,18.361323 -7.55078,18.361323 -2.03,0 -3.2,-0.59031 -4.5,-2.07031 l -12.7793,8.14063 c 0.15,0.15 6.53906,10.06836 24.53906,10.06836 24.4,0 38.63047,-17.76016 49.23047,-37.160159 -1.18,-2.81 -5.10039,-5.618203 -8.15039,-5.908203 -6.54,11.549998 -12.48945,19.539762 -20.18945,25.759762 0.44,-1.78 0.73046,-3.85023 0.73046,-7.99023 -0.14999,-9.330009 -3.19992,-32.571405 0.58008,-53.441408 l -20.04101,-5.179687 c -5.52,12.43 -14.95953,30.791328 -20.76953,40.861328 -11.18,19.389997 -18.15071,28.568357 -22.22071,28.568357 -2.03,0 -5.51984,-2.36922 1.16016,-18.949216 l 4.07031,-10.509766 c 1.31,-3.4 1.74024,-5.630392 1.74024,-7.40039 0,-11.1 -17.86032,-19.388754 -23.82032,-24.71875 l 4.65039,-11.841797 -9.43945,-5.330079 c -5.95,1.920001 -13.65039,9.920704 -13.65039,17.470704 0,3.7 1.89,6.219297 4.5,9.029296 -4.21,9.47 -8.2807,17.911641 -11.4707,23.681641 -10.31,18.649997 -26.00055,28.568357 -40.81055,28.568357 -18.44,0 -14.22852,-15.398435 -14.22852,-15.398435 26.87001,3.549995 38.48985,-5.03 44.58985,-18.5 9.29,-21.32 -4.65055,-32.271484 -21.06055,-32.271484 -23.69,0 -37.84023,20.211015 -43.24023,38.541015 -6.33,11.04 -12.16039,18.770544 -19.65039,24.810544 0.44,-1.78 0.73047,-3.85023 0.73047,-7.99023 -0.15,-9.330009 -3.19993,-32.5714 0.58007,-53.441408 l -20.03906,-5.179687 c -5.52,12.43 -14.96148,30.791328 -20.77148,40.861328 -10.31,18.209997 -20.32867,28.568357 -26.13868,28.568357 -2.47,0 -5.08039,-2.06922 1.59961,-18.949216 l 17.85938,-45.300782 h -23.08984 l -14.68946,36.970704 c -10.74,18.500004 -17.4907,27.269534 -21.4707,27.269534 -2.03,0 -5.51984,-2.36922 1.16016,-18.949222 l 4.07031,-10.509766 c 1.31,-3.4 1.74023,-5.63039 1.74023,-7.40039 0,-11.1 -17.86031,-19.390703 -23.82031,-24.720703 l 4.65039,-11.839844 z M 494.5,67.160156 c 4.94,0 4.06969,3.999453 2.17969,8.439453 -2.9,6.96 -7.25914,13.170547 -20.61914,10.810547 0,-0.01 7.68945,-19.25 18.43945,-19.25 z M 222.51172,87.28125 c -0.54616,0.635501 -1.11512,1.270972 -1.73242,1.908203 -0.34445,0.35556 -2.06771,2.130732 -2.38868,2.482422 -0.1848,0.20252 -0.31085,0.461616 -0.52343,0.634766 -0.0445,0.03618 -0.025,-0.20991 -0.0566,-0.16211 -0.30147,0.45552 -0.52474,0.95839 -0.78711,1.4375 -0.46958,0.7667 -0.92362,1.543481 -1.40821,2.300781 -0.0565,0.08824 0.1161,-0.186365 0.1211,-0.291015 0.002,-0.0396 -0.0879,-0.08823 -0.10547,-0.05273 -0.25875,0.52018 -0.44335,1.073566 -0.66797,1.609376 -1.35598,3.234627 -0.74292,1.829182 -2.43359,5.382817 -0.96093,1.47101 -1.8839,2.96855 -2.88282,4.41406 -0.20687,0.29937 -0.49388,0.53435 -0.72851,0.8125 -0.42245,0.50079 -0.85637,0.99393 -1.24219,1.52344 -0.4703,0.64546 -0.88338,1.32888 -1.32226,1.99608 -0.90432,1.37478 -1.17903,1.79032 -1.41797,2.17189 0.1799,1.09565 0.32364,2.19804 0.54687,3.28516 0.19234,0.93662 0.44943,1.85957 0.68946,2.78515 0.78519,3.02801 1.0494,3.95575 1.43554,5.22266 z"
   clip-path="url(#clipPath2256)" />
	</g>
	<g
   id="g40"
   transform="translate(0,0.62854385)">
		
		
		
		
		
		
		
		
		
		
	</g>
	<g
   id="g72"
   transform="translate(0,0.62854385)">
		
		
		
		
		
		
		
		
		
		
		
		
		
		
		
	</g>
</svg>
