<?xml version="1.0" encoding="UTF-8" standalone="no"?>
<!-- Generator: Adobe Illustrator 25.4.1, SVG Export Plug-In . SVG Version: 6.00 Build 0)  -->

<svg
   version="1.1"
   id="vector"
   x="0px"
   y="0px"
   viewBox="18 20 665 204"
   style=""
   xml:space="preserve"
   sodipodi:docname="logo-text-no-sub.svg"
   inkscape:version="1.1.2 (b8e25be833, 2022-02-05)"
   xmlns:inkscape="http://www.inkscape.org/namespaces/inkscape"
   xmlns:sodipodi="http://sodipodi.sourceforge.net/DTD/sodipodi-0.dtd"
   xmlns="http://www.w3.org/2000/svg"
   xmlns:svg="http://www.w3.org/2000/svg"><defs
   id="defs77" /><sodipodi:namedview
   id="namedview75"
   pagecolor="#505050"
   bordercolor="#eeeeee"
   borderopacity="1"
   inkscape:pageshadow="0"
   inkscape:pageopacity="0"
   inkscape:pagecheckerboard="0"
   showgrid="false"
   inkscape:zoom="1.5909774"
   inkscape:cx="229.10444"
   inkscape:cy="103.70983"
   inkscape:window-width="2482"
   inkscape:window-height="1417"
   inkscape:window-x="-8"
   inkscape:window-y="-8"
   inkscape:window-maximized="1"
   inkscape:current-layer="vector" />
	<style
   type="text/css"
   id="style2">
	.st0{fill:#125491;}
	.st1{fill:#F87C39;}
</style>
	<g
   id="g10">
		<path
   class="st0"
   d="M145.97,46.71c0-10.36-6.54-22.5-22.66-22.5c-17.28,0-29.05,13.47-29.05,35.23c0,8.59,1.74,18.36,3.78,27.68   c-14.96,13.77-33.69,30.79-45.6,42.19c-1.89-3.55-2.76-7.55-2.76-11.99c0-16.58,14.09-27.09,29.05-19.39l6.97-17.91   c-25.42-13.32-56.64,4.14-56.64,38.19c0,10.66,3.05,19.84,8.28,27.09c-9.59,12.88-14.09,26.79-11.91,39.52h15.1   c-2.03-11.55,1.16-20.13,8.42-28.87c7.41,4.44,16.41,7.11,26.58,7.11c27.59,0,48.22-18.8,48.22-48.55c0-8.14-1.45-17.47-3.2-26.65   C133.92,74.54,145.97,61.07,145.97,46.71z M75.25,142.63c-3.92,0-7.7-0.74-10.89-2.37c10.6-9.77,24.25-22.06,37.18-34.34   c0.15,2.66,0.58,5.18,0.58,7.4C102.11,129.76,91.22,142.63,75.25,142.63z M115.62,57.37c0-3.4,0.44-13.32,7.55-13.32   c3.78,0,4.65,2.96,4.65,5.48c0,5.18-3.34,10.95-11.04,19.1C116.06,64.47,115.62,60.63,115.62,57.37z"
   id="path4" />
		<path
   class="st0"
   d="M402.3,66.69c6.83,0,12.78-6.07,12.78-13.03c0-7.25-5.95-12.88-12.78-12.88c-7.12,0-12.78,5.63-12.78,12.88   C389.52,60.63,395.18,66.69,402.3,66.69z"
   id="path6" />
		<path
   id="path8"
   class="st0"
   transform="translate(18,20)"
   d="m 307.4707,38.410156 c -5.95,1.92 -13.65039,9.920703 -13.65039,17.470703 0,3.7 1.89,6.219297 4.5,9.029297 -4.21,9.47 -8.2807,17.909688 -11.4707,23.679688 -10.31,18.209996 -20.32867,28.570316 -26.13867,28.570316 -2.47,0 -5.23078,-1.91922 1.44922,-18.949222 l 7.11914,-17.621094 c 3.05,-7.7 4.36135,-12.730469 4.36132,-16.730469 0,-7.85 -4.7914,-12.878906 -13.9414,-12.878906 -12.34,0 -23.08836,9.029531 -23.81836,9.769531 l 2.48828,-7.089844 -22.5293,-0.75 -14.66015,36.919922 c -10.16,17.570002 -19.03024,27.330082 -24.99024,27.330082 -2.9,0 -5.36984,-2.51922 1.16016,-18.949222 l 17.86133,-45.300782 h -23.0918 l -15.53906,39.230469 c -8.71,14.950005 -14.38102,22.939455 -20.04102,22.939455 -2.9,0 -4.93851,-2.07086 1.02149,-16.880861 l 17.85937,-45.298828 h -23.08984 l -16.41016,41.298828 c -10.6,26.790001 -1.15984,37.451171 11.91016,37.451171 9.29,0 16.84929,-5.33031 23.5293,-13.32031 1.59997,9.33 8.42015,13.32031 16.41015,13.32031 7.11,0 13.87039,-3.20016 20.15039,-8.41016 l -2.58008,6.49024 h 23.08985 l 19.60937,-49.291017 c 6.1,-7.11 12.78149,-10.509765 16.27149,-10.509765 2.18,0 3.91992,1.179765 3.91992,3.259765 0,2.22 -2.32008,7.851172 -5.08008,14.951172 l -2.17969,5.478516 c -10.31,26.199999 -4.07093,38.041019 11.03907,38.041019 17.43,0 31.37023,-16.58016 42.99023,-37.16016 4.07,-7.25 7.69914,-14.510078 11.61914,-23.830078 3.92,3.4 7.12109,6.069297 7.12109,9.029297 0,0.74 -0.15054,2.22164 -1.31054,5.18164 l -4.65039,11.988282 c -10.46,26.199999 1.60164,34.791019 12.93164,34.791019 9.09,0 16.76976,-5.66016 23.75976,-14.16016 1.19,9.9 7.96836,14.16016 16.31836,14.16016 16.7,0 31.22016,-17.17016 42.41016,-37.16016 2.9,-5.18 6.68094,-12.879687 10.46094,-20.429688 -0.29,7.400003 0.28906,16.579844 0.28906,23.089844 0,14.360004 -2.89883,18.359374 -7.54883,18.359374 -2.03,0 -3.2,-0.59031 -4.5,-2.07031 l -12.78125,8.14062 c 0.15,0.15 6.54102,10.07032 24.54102,10.07032 17.06,0 29.14023,-8.6793 38.49023,-20.5293 2.11,12.79 11.76875,20.5293 29.46875,20.5293 27.88,0 45.60047,-19.39016 55.48047,-37.16016 4.07,-7.25 7.70109,-14.510078 11.62109,-23.830078 3.92,3.4 7.11914,6.069297 7.11914,9.029297 0,0.74 -0.15054,2.22164 -1.31054,5.18164 l -4.64844,11.988282 c -10.46,26.199999 1.59969,34.791019 12.92969,34.791019 15.98,0 27.58929,-17.47016 38.77929,-37.16016 2.9,-5.18 6.68094,-12.879687 10.46094,-20.429688 -0.29,7.400003 0.28906,16.579844 0.28906,23.089844 0,14.360004 -2.90078,18.359374 -7.55078,18.359374 -2.03,0 -3.2,-0.59031 -4.5,-2.07031 l -12.77929,8.14062 c 0.15,0.15 6.54101,10.07032 24.54101,10.07032 24.4,0 38.62852,-17.76016 49.22852,-37.16016 -1.2,-2.8 -5.11993,-5.620156 -8.16992,-5.910156 -6.54,11.549996 -12.48946,19.539766 -20.18946,25.759766 0.44,-1.78 0.73047,-3.85024 0.73047,-7.99023 -0.15,-9.330015 -3.19992,-32.569458 0.58008,-53.439458 l -20.04102,-5.179688 c -5.52,12.43 -14.95953,30.789375 -20.76953,40.859375 -11.18,19.390001 -18.1507,28.570311 -22.2207,28.570311 -2.03,0 -5.51986,-2.36922 1.16016,-18.949217 l 4.07031,-10.509765 c 1.31,-3.400003 1.74023,-5.630391 1.74023,-7.400391 0,-11.1 -17.86031,-19.390703 -23.82031,-24.720703 L 559,43.75 549.56055,38.419922 c -5.95,1.92 -13.65039,9.920703 -13.65039,17.470703 0,3.7 1.89,6.219297 4.5,9.029297 -4.21,9.47 -8.28071,17.909687 -11.47071,23.679687 -10.31,18.650001 -25.99859,28.570311 -40.80859,28.570311 -18.44,0 -14.23047,-15.40039 -14.23047,-15.40039 26.87,3.55 38.48984,-5.029999 44.58984,-18.499999 C 527.78023,61.949531 513.83969,51 497.42969,51 c -23.69,0 -37.84024,20.209065 -43.24024,38.539062 -6.33,11.039998 -12.16039,18.770548 -19.65039,24.810548 0.44,-1.78 0.73047,-3.85024 0.73047,-7.99023 -0.15,-9.330015 -3.19992,-32.569458 0.58008,-53.439458 l -20.03906,-5.179688 c -5.52,12.43 -14.96149,30.789375 -20.77149,40.859375 -10.31,18.210001 -20.32867,28.570311 -26.13867,28.570311 -2.47,0 -5.08039,-2.06922 1.59961,-18.949217 l 17.85938,-45.300781 h -23.08985 l -14.68945,36.970703 c -10.74,18.499995 -17.49072,27.269535 -21.4707,27.269535 -2.03,0 -5.51985,-2.36922 1.16015,-18.949222 l 4.07031,-10.511719 c 1.31,-3.4 1.74024,-5.628438 1.74024,-7.398438 0,-11.1 -17.86031,-19.390703 -23.82031,-24.720703 l 4.65039,-11.839844 z m 188.79883,31.378906 c 4.94,0 4.06969,4.001407 2.17969,8.441407 -2.9,6.96 -7.25914,13.168594 -20.61914,10.808593 -0.01,-0.01 7.68945,-19.25 18.43945,-19.25 z" />
	</g>
	<g
   id="g18">
		<path
   class="st1"
   d="M144.21,44.08c0-10.36-6.54-22.5-22.66-22.5c-17.28,0-29.05,13.47-29.05,35.23c0,8.59,1.74,18.36,3.78,27.68   c-14.96,13.77-33.69,30.79-45.6,42.19c-1.89-3.55-2.76-7.55-2.76-11.99c0-16.58,14.09-27.09,29.05-19.39l6.97-17.91   C58.52,64.06,27.3,81.53,27.3,115.58c0,10.66,3.05,19.84,8.28,27.09c-9.59,12.88-14.09,26.79-11.91,39.52h15.1   c-2.03-11.55,1.16-20.13,8.42-28.87c7.41,4.44,16.41,7.11,26.58,7.11c27.59,0,48.22-18.8,48.22-48.55c0-8.14-1.45-17.47-3.2-26.65   C132.15,71.91,144.21,58.44,144.21,44.08z M73.48,140c-3.92,0-7.7-0.74-10.89-2.37c10.6-9.77,24.25-22.06,37.18-34.34   c0.15,2.66,0.58,5.18,0.58,7.4C100.35,127.12,89.45,140,73.48,140z M113.85,54.74c0-3.4,0.44-13.32,7.55-13.32   c3.78,0,4.65,2.96,4.65,5.48c0,5.18-3.34,10.95-11.04,19.1C114.29,61.84,113.85,57.99,113.85,54.74z"
   id="path12" />
		<path
   class="st1"
   d="M400.53,64.06c6.83,0,12.78-6.07,12.78-13.03c0-7.25-5.95-12.88-12.78-12.88c-7.12,0-12.78,5.63-12.78,12.88   C387.75,57.99,393.41,64.06,400.53,64.06z"
   id="path14" />
		<path
   id="path16"
   class="st1"
   transform="translate(18,20)"
   d="m 305.71094,35.779297 c -5.95,1.92 -13.65039,9.920703 -13.65039,17.470703 0,3.7 1.89,6.219297 4.5,9.029297 -4.21,9.47 -8.28071,17.911641 -11.47071,23.681641 -10.31,18.210002 -20.33062,28.568362 -26.14062,28.568362 -2.47,0 -5.22883,-1.91922 1.45117,-18.949222 l 7.11914,-17.61914 c 3.05,-7.700002 4.36133,-12.730469 4.36133,-16.730469 0,-7.85 -4.79141,-12.88086 -13.94141,-12.88086 -12.34,0 -23.09031,9.029532 -23.82031,9.769532 l 2.49024,-7.089844 -22.5293,-0.75 -14.66016,36.919922 c -10.16,17.570001 -19.03023,27.330081 -24.99023,27.330081 -2.9,0 -5.36985,-2.51922 1.16015,-18.949222 l 17.85938,-45.300781 h -23.08984 l -15.53907,39.230469 c -8.71,14.950004 -14.38101,22.939454 -20.04101,22.939454 -2.9,0 -4.93852,-2.06891 1.02148,-16.878908 l 17.85938,-45.300781 h -23.08985 l -16.41015,41.300781 c -10.6,26.789998 -1.15985,37.449218 11.91015,37.449218 9.29,0 16.8493,-5.33031 23.5293,-13.32031 1.6,9.33 8.42016,13.32031 16.41016,13.32031 7.11,0 13.87039,-3.20015 20.15039,-8.41015 l -2.58008,6.49023 h 23.08984 L 226.2793,77.810547 c 6.1,-7.11 12.78148,-10.509766 16.27148,-10.509766 2.18,0 3.91992,1.179766 3.91992,3.259766 0,2.22 -2.32006,7.849219 -5.08008,14.949219 l -2.17968,5.480468 C 228.90094,117.19023 235.14,129.0293 250.25,129.0293 c 17.43,0 31.37023,-16.58016 42.99023,-37.160159 4.07,-7.25 7.69914,-14.510078 11.61915,-23.830079 3.92,3.400002 7.12109,6.071252 7.12109,9.03125 0,0.74 -0.15055,2.219688 -1.31055,5.179688 L 306,94.240234 c -10.46,26.199996 1.59969,34.789066 12.92969,34.789066 9.09,0 16.76976,-5.66016 23.75976,-14.16016 1.19,9.9 7.97032,14.16016 16.32032,14.16016 16.7,0 31.22015,-17.17016 42.41015,-37.160159 2.9,-5.18 6.68094,-12.879688 10.46094,-20.429688 -0.29,7.4 0.28906,16.579844 0.28906,23.089844 0,14.360003 -2.90078,18.361333 -7.55078,18.361323 -2.03,0 -3.2,-0.59031 -4.5,-2.07031 l -12.7793,8.14063 c 0.15,0.15 6.54102,10.06836 24.54102,10.06836 17.06,0 29.13828,-8.6793 38.48828,-20.5293 2.11,12.79 11.7707,20.5293 29.4707,20.5293 27.88,0 45.60047,-19.39016 55.48047,-37.160159 4.07,-7.25 7.69914,-14.510079 11.61914,-23.830079 3.92,3.400002 7.1211,6.071252 7.1211,9.03125 0,0.74 -0.15055,2.219688 -1.31055,5.179688 l -4.65039,11.990234 c -10.46,26.199996 1.59969,34.789066 12.92969,34.789066 15.98,0 27.59125,-17.47016 38.78125,-37.160159 2.9,-5.18 6.67898,-12.879688 10.45898,-20.429688 -0.29,7.4 0.29102,16.579844 0.29102,23.089844 0,14.360003 -2.90078,18.361323 -7.55078,18.361323 -2.03,0 -3.2,-0.59031 -4.5,-2.07031 l -12.7793,8.14063 c 0.15,0.15 6.53906,10.06836 24.53906,10.06836 24.4,0 38.63047,-17.76016 49.23047,-37.160159 -1.18,-2.81 -5.10039,-5.618203 -8.15039,-5.908203 -6.54,11.549998 -12.48945,19.539762 -20.18945,25.759762 0.44,-1.78 0.73046,-3.85023 0.73046,-7.99023 -0.14999,-9.330002 -3.19992,-32.571406 0.58008,-53.441408 l -20.04101,-5.179687 c -5.52,12.43 -14.95953,30.791328 -20.76953,40.861328 -11.18,19.389997 -18.15071,28.568357 -22.22071,28.568357 -2.03,0 -5.51984,-2.36922 1.16016,-18.949216 l 4.07031,-10.509766 c 1.31,-3.4 1.74024,-5.630392 1.74024,-7.40039 0,-11.1 -17.86032,-19.388751 -23.82032,-24.71875 l 4.65039,-11.841797 -9.43945,-5.330079 c -5.95,1.920001 -13.65039,9.920704 -13.65039,17.470704 0,3.7 1.89,6.219297 4.5,9.029296 -4.21,9.47 -8.2807,17.911641 -11.4707,23.681641 -10.31,18.649997 -26.00055,28.568357 -40.81055,28.568357 -18.44,0 -14.22852,-15.398435 -14.22852,-15.398435 26.87001,3.549995 38.48985,-5.03 44.58985,-18.5 9.29,-21.32 -4.65055,-32.271484 -21.06055,-32.271484 -23.69,0 -37.84023,20.211015 -43.24023,38.541015 -6.33,11.04 -12.16039,18.770544 -19.65039,24.810544 0.44,-1.78 0.73047,-3.85023 0.73047,-7.99023 -0.15,-9.330002 -3.19993,-32.571407 0.58007,-53.441408 l -20.03906,-5.179687 c -5.52,12.43 -14.96148,30.791328 -20.77148,40.861328 -10.31,18.209997 -20.32867,28.568357 -26.13868,28.568357 -2.47,0 -5.08039,-2.06922 1.59961,-18.949216 l 17.85938,-45.300782 h -23.08984 l -14.68946,36.970704 c -10.74,18.500004 -17.4907,27.269534 -21.4707,27.269534 -2.03,0 -5.51984,-2.36922 1.16016,-18.949222 l 4.07031,-10.509766 c 1.31,-3.4 1.74023,-5.63039 1.74023,-7.40039 0,-11.1 -17.86031,-19.390703 -23.82031,-24.720703 l 4.65039,-11.839844 z M 494.5,67.160156 c 4.94,0 4.06969,3.999453 2.17969,8.439453 -2.9,6.96 -7.25914,13.170547 -20.61914,10.810547 0,-0.01 7.68945,-19.25 18.43945,-19.25 z" />
	</g>
	<g
   id="g40">
		
		
		
		<path
   id="path26"
   class="st0"
   transform="translate(18,20)"
   d="m 198.5332,46.658203 c -3.74266,0.134713 -4.06236,0.15095 -4.36523,0.162109 0.54973,0.07079 1.1525,0.109376 1.82226,0.109376 0.99895,0 1.84585,-0.09039 2.54297,-0.271485 z" />
		
		
		
		
		
		
	</g>
	<g
   id="g72">
		<path
   id="path42"
   class="st0"
   transform="translate(18,20)"
   d="m 413.04688,139.76953 c -0.0145,0.0927 -0.0299,0.18554 -0.0547,0.27539 0.4287,-0.0393 0.92553,-0.0863 1.24414,-0.11523 0.12147,-0.0535 0.2427,-0.10135 0.36328,-0.14649 -0.25009,-0.009 -0.51103,-0.0137 -0.78906,-0.0137 z m -0.5586,0.28516 c 0.002,0.01 0.004,0.0195 0.006,0.0293 0.002,0.0109 0.0305,-0.0263 0.0195,-0.0273 -0.008,-8.9e-4 -0.0169,-9.5e-4 -0.0254,-0.002 z" />
		
		
		
		
		
		
		
		
		
		
		
		
		
		
	</g>
</svg>
