<?xml version="1.0" encoding="utf-8"?>
<!-- Generator: Adobe Illustrator 25.4.1, SVG Export Plug-In . SVG Version: 6.00 Build 0)  -->
<svg version="1.1" id="vector" xmlns="http://www.w3.org/2000/svg" xmlns:xlink="http://www.w3.org/1999/xlink" x="0px" y="0px" viewBox="18 20 665 204" style="" xml:space="preserve">
	<style type="text/css">
	.st0{fill:#f7f7f7;}
	.st1{fill:#f7f7f7;}
</style>
	<g>
		<path class="st0" d="M145.97,46.71c0-10.36-6.54-22.5-22.66-22.5c-17.28,0-29.05,13.47-29.05,35.23c0,8.59,1.74,18.36,3.78,27.68
		c-14.96,13.77-33.69,30.79-45.6,42.19c-1.89-3.55-2.76-7.55-2.76-11.99c0-16.58,14.09-27.09,29.05-19.39l6.97-17.91
		c-25.42-13.32-56.64,4.14-56.64,38.19c0,10.66,3.05,19.84,8.28,27.09c-9.59,12.88-14.09,26.79-11.91,39.52h15.1
		c-2.03-11.55,1.16-20.13,8.42-28.87c7.41,4.44,16.41,7.11,26.58,7.11c27.59,0,48.22-18.8,48.22-48.55c0-8.14-1.45-17.47-3.2-26.65
		C133.92,74.54,145.97,61.07,145.97,46.71z M75.25,142.63c-3.92,0-7.7-0.74-10.89-2.37c10.6-9.77,24.25-22.06,37.18-34.34
		c0.15,2.66,0.58,5.18,0.58,7.4C102.11,129.76,91.22,142.63,75.25,142.63z M115.62,57.37c0-3.4,0.44-13.32,7.55-13.32
		c3.78,0,4.65,2.96,4.65,5.48c0,5.18-3.34,10.95-11.04,19.1C116.06,64.47,115.62,60.63,115.62,57.37z" />
		<path class="st0" d="M402.3,66.69c6.83,0,12.78-6.07,12.78-13.03c0-7.25-5.95-12.88-12.78-12.88c-7.12,0-12.78,5.63-12.78,12.88
		C389.52,60.63,395.18,66.69,402.3,66.69z" />
		<path class="st0" d="M671.11,108.59c-6.54,11.55-12.49,19.54-20.19,25.76c0.44-1.78,0.73-3.85,0.73-7.99
		c-0.15-9.33-3.2-32.57,0.58-53.44l-20.04-5.18c-5.52,12.43-14.96,30.79-20.77,40.86c0,0,0,0,0,0
		c-11.18,19.39-18.15,28.57-22.22,28.57c-2.03,0-5.52-2.37,1.16-18.95l4.07-10.51c1.31-3.4,1.74-5.63,1.74-7.4
		c0-11.1-17.86-19.39-23.82-24.72l4.65-11.84l-9.44-5.33c-5.95,1.92-13.65,9.92-13.65,17.47c0,3.7,1.89,6.22,4.5,9.03
		c-4.21,9.47-8.28,17.91-11.47,23.68c0,0,0,0,0,0c-10.31,18.65-26,28.57-40.81,28.57c-18.44,0-14.23-15.4-14.23-15.4
		c26.87,3.55,38.49-5.03,44.59-18.5c9.29-21.32-4.65-32.27-21.06-32.27c-23.69,0-37.84,20.21-43.24,38.54
		c-6.33,11.04-12.16,18.77-19.65,24.81c0.44-1.78,0.73-3.85,0.73-7.99c-0.15-9.33-3.2-32.57,0.58-53.44l-20.04-5.18
		c-5.52,12.43-14.96,30.79-20.77,40.86c0,0,0,0,0,0c-10.31,18.21-20.33,28.57-26.14,28.57c-2.47,0-5.08-2.07,1.6-18.95l17.86-45.3
		h-23.09l-14.69,36.97c-10.74,18.5-17.49,27.27-21.47,27.27c-2.03,0-5.52-2.37,1.16-18.95l4.07-10.51c1.31-3.4,1.74-5.63,1.74-7.4
		c0-11.1-17.86-19.39-23.82-24.72l4.65-11.84l-9.44-5.33c-5.95,1.92-13.65,9.92-13.65,17.47c0,3.7,1.89,6.22,4.5,9.03
		c-4.21,9.47-8.28,17.91-11.47,23.68c0,0,0,0,0,0c-10.31,18.21-20.33,28.57-26.14,28.57c-2.47,0-5.23-1.92,1.45-18.95l7.12-17.62
		c3.05-7.7,4.36-12.73,4.36-16.73c0-7.85-4.79-12.88-13.94-12.88c-12.34,0-23.09,9.03-23.82,9.77l2.49-7.09l-22.53-0.75
		l-14.66,36.92c-10.16,17.57-19.03,27.33-24.99,27.33c-2.9,0-5.37-2.52,1.16-18.95l17.86-45.3h-23.09l-15.54,39.23
		c-8.71,14.95-14.38,22.94-20.04,22.94c-2.9,0-4.94-2.07,1.02-16.88l17.86-45.3h-23.09l-16.41,41.3
		c-10.6,26.79-1.16,37.45,11.91,37.45c9.29,0,16.85-5.33,23.53-13.32c1.6,9.33,8.42,13.32,16.41,13.32c7.11,0,13.87-3.2,20.15-8.41
		l-2.58,6.49h23.09l19.61-49.29c6.1-7.11,12.78-10.51,16.27-10.51c2.18,0,3.92,1.18,3.92,3.26c0,2.22-2.32,7.85-5.08,14.95
		l-2.18,5.48c-10.31,26.2-4.07,38.04,11.04,38.04c17.43,0,31.37-16.58,42.99-37.16c0,0,0,0,0,0c4.07-7.25,7.7-14.51,11.62-23.83
		c3.92,3.4,7.12,6.07,7.12,9.03c0,0.74-0.15,2.22-1.31,5.18l-4.65,11.99c-10.46,26.2,1.6,34.79,12.93,34.79
		c9.09,0,16.77-5.66,23.76-14.16c1.19,9.9,7.97,14.16,16.32,14.16c16.7,0,31.22-17.17,42.41-37.16c0,0,0,0,0,0
		c2.9-5.18,6.68-12.88,10.46-20.43c-0.29,7.4,0.29,16.58,0.29,23.09c0,14.36-2.9,18.36-7.55,18.36c-2.03,0-3.2-0.59-4.5-2.07
		l-12.78,8.14c0.15,0.15,6.54,10.07,24.54,10.07c17.06,0,29.14-8.68,38.49-20.53c2.11,12.79,11.77,20.53,29.47,20.53
		c27.88,0,45.6-19.39,55.48-37.16c0,0,0,0,0,0c4.07-7.25,7.7-14.51,11.62-23.83c3.92,3.4,7.12,6.07,7.12,9.03
		c0,0.74-0.15,2.22-1.31,5.18l-4.65,11.99c-10.46,26.2,1.6,34.79,12.93,34.79c15.98,0,27.59-17.47,38.78-37.16c0,0,0,0,0,0
		c2.9-5.18,6.68-12.88,10.46-20.43c-0.29,7.4,0.29,16.58,0.29,23.09c0,14.36-2.9,18.36-7.55,18.36c-2.03,0-3.2-0.59-4.5-2.07
		l-12.78,8.14c0.15,0.15,6.54,10.07,24.54,10.07c24.4,0,38.63-17.76,49.23-37.16C678.08,111.7,674.16,108.88,671.11,108.59z
		 M514.27,89.79c4.94,0,4.07,4,2.18,8.44c-2.9,6.96-7.26,13.17-20.62,10.81C495.82,109.03,503.52,89.79,514.27,89.79z" />
	</g>
	<g>
		<path class="st1" d="M144.21,44.08c0-10.36-6.54-22.5-22.66-22.5c-17.28,0-29.05,13.47-29.05,35.23c0,8.59,1.74,18.36,3.78,27.68
		c-14.96,13.77-33.69,30.79-45.6,42.19c-1.89-3.55-2.76-7.55-2.76-11.99c0-16.58,14.09-27.09,29.05-19.39l6.97-17.91
		C58.52,64.06,27.3,81.53,27.3,115.58c0,10.66,3.05,19.84,8.28,27.09c-9.59,12.88-14.09,26.79-11.91,39.52h15.1
		c-2.03-11.55,1.16-20.13,8.42-28.87c7.41,4.44,16.41,7.11,26.58,7.11c27.59,0,48.22-18.8,48.22-48.55c0-8.14-1.45-17.47-3.2-26.65
		C132.15,71.91,144.21,58.44,144.21,44.08z M73.48,140c-3.92,0-7.7-0.74-10.89-2.37c10.6-9.77,24.25-22.06,37.18-34.34
		c0.15,2.66,0.58,5.18,0.58,7.4C100.35,127.12,89.45,140,73.48,140z M113.85,54.74c0-3.4,0.44-13.32,7.55-13.32
		c3.78,0,4.65,2.96,4.65,5.48c0,5.18-3.34,10.95-11.04,19.1C114.29,61.84,113.85,57.99,113.85,54.74z" />
		<path class="st1" d="M400.53,64.06c6.83,0,12.78-6.07,12.78-13.03c0-7.25-5.95-12.88-12.78-12.88c-7.12,0-12.78,5.63-12.78,12.88
		C387.75,57.99,393.41,64.06,400.53,64.06z" />
		<path class="st1" d="M669.35,105.96c-6.54,11.55-12.49,19.54-20.19,25.76c0.44-1.78,0.73-3.85,0.73-7.99
		c-0.15-9.33-3.2-32.57,0.58-53.44l-20.04-5.18c-5.52,12.43-14.96,30.79-20.77,40.86c0,0,0,0,0,0
		c-11.18,19.39-18.15,28.57-22.22,28.57c-2.03,0-5.52-2.37,1.16-18.95l4.07-10.51c1.31-3.4,1.74-5.63,1.74-7.4
		c0-11.1-17.86-19.39-23.82-24.72l4.65-11.84l-9.44-5.33c-5.95,1.92-13.65,9.92-13.65,17.47c0,3.7,1.89,6.22,4.5,9.03
		c-4.21,9.47-8.28,17.91-11.47,23.68c0,0,0,0,0,0c-10.31,18.65-26,28.57-40.81,28.57c-18.44,0-14.23-15.4-14.23-15.4
		c26.87,3.55,38.49-5.03,44.59-18.5c9.29-21.32-4.65-32.27-21.06-32.27c-23.69,0-37.84,20.21-43.24,38.54
		c-6.33,11.04-12.16,18.77-19.65,24.81c0.44-1.78,0.73-3.85,0.73-7.99c-0.15-9.33-3.2-32.57,0.58-53.44l-20.04-5.18
		c-5.52,12.43-14.96,30.79-20.77,40.86c0,0,0,0,0,0c-10.31,18.21-20.33,28.57-26.14,28.57c-2.47,0-5.08-2.07,1.6-18.95l17.86-45.3
		h-23.09l-14.69,36.97c-10.74,18.5-17.49,27.27-21.47,27.27c-2.03,0-5.52-2.37,1.16-18.95l4.07-10.51c1.31-3.4,1.74-5.63,1.74-7.4
		c0-11.1-17.86-19.39-23.82-24.72l4.65-11.84l-9.44-5.33c-5.95,1.92-13.65,9.92-13.65,17.47c0,3.7,1.89,6.22,4.5,9.03
		c-4.21,9.47-8.28,17.91-11.47,23.68c0,0,0,0,0,0c-10.31,18.21-20.33,28.57-26.14,28.57c-2.47,0-5.23-1.92,1.45-18.95l7.12-17.62
		c3.05-7.7,4.36-12.73,4.36-16.73c0-7.85-4.79-12.88-13.94-12.88c-12.34,0-23.09,9.03-23.82,9.77l2.49-7.09l-22.53-0.75
		l-14.66,36.92c-10.16,17.57-19.03,27.33-24.99,27.33c-2.9,0-5.37-2.52,1.16-18.95l17.86-45.3h-23.09l-15.54,39.23
		c-8.71,14.95-14.38,22.94-20.04,22.94c-2.9,0-4.94-2.07,1.02-16.88l17.86-45.3h-23.09l-16.41,41.3
		c-10.6,26.79-1.16,37.45,11.91,37.45c9.29,0,16.85-5.33,23.53-13.32c1.6,9.33,8.42,13.32,16.41,13.32c7.11,0,13.87-3.2,20.15-8.41
		l-2.58,6.49h23.09l19.61-49.29c6.1-7.11,12.78-10.51,16.27-10.51c2.18,0,3.92,1.18,3.92,3.26c0,2.22-2.32,7.85-5.08,14.95
		l-2.18,5.48c-10.31,26.2-4.07,38.04,11.04,38.04c17.43,0,31.37-16.58,42.99-37.16c0,0,0,0,0,0c4.07-7.25,7.7-14.51,11.62-23.83
		c3.92,3.4,7.12,6.07,7.12,9.03c0,0.74-0.15,2.22-1.31,5.18L324,114.24c-10.46,26.2,1.6,34.79,12.93,34.79
		c9.09,0,16.77-5.66,23.76-14.16c1.19,9.9,7.97,14.16,16.32,14.16c16.7,0,31.22-17.17,42.41-37.16c0,0,0,0,0,0
		c2.9-5.18,6.68-12.88,10.46-20.43c-0.29,7.4,0.29,16.58,0.29,23.09c0,14.36-2.9,18.36-7.55,18.36c-2.03,0-3.2-0.59-4.5-2.07
		l-12.78,8.14c0.15,0.15,6.54,10.07,24.54,10.07c17.06,0,29.14-8.68,38.49-20.53c2.11,12.79,11.77,20.53,29.47,20.53
		c27.88,0,45.6-19.39,55.48-37.16c0,0,0,0,0,0c4.07-7.25,7.7-14.51,11.62-23.83c3.92,3.4,7.12,6.07,7.12,9.03
		c0,0.74-0.15,2.22-1.31,5.18l-4.65,11.99c-10.46,26.2,1.6,34.79,12.93,34.79c15.98,0,27.59-17.47,38.78-37.16c0,0,0,0,0,0
		c2.9-5.18,6.68-12.88,10.46-20.43c-0.29,7.4,0.29,16.58,0.29,23.09c0,14.36-2.9,18.36-7.55,18.36c-2.03,0-3.2-0.59-4.5-2.07
		l-12.78,8.14c0.15,0.15,6.54,10.07,24.54,10.07c24.4,0,38.63-17.76,49.23-37.16C676.32,109.06,672.4,106.25,669.35,105.96z
		 M512.5,87.16c4.94,0,4.07,4,2.18,8.44c-2.9,6.96-7.26,13.17-20.62,10.81C494.06,106.4,501.75,87.16,512.5,87.16z" />
	</g>
	<g>
		<path class="st0" d="M161.31,61.74V44.19h3.57v14.56h8.88v2.98H161.31z" />
		<path class="st0" d="M176.12,55.15c0-1.13,0.28-2.22,0.83-3.27c0.55-1.05,1.34-1.86,2.36-2.41c1.02-0.55,2.15-0.83,3.41-0.83
		c1.94,0,3.53,0.63,4.77,1.89c1.24,1.26,1.86,2.85,1.86,4.77c0,1.94-0.63,3.55-1.88,4.82c-1.25,1.27-2.83,1.91-4.72,1.91
		c-1.17,0-2.29-0.27-3.36-0.8c-1.07-0.53-1.88-1.31-2.43-2.33C176.4,57.87,176.12,56.62,176.12,55.15z M179.59,55.33
		c0,1.27,0.3,2.24,0.9,2.92c0.6,0.68,1.35,1.01,2.23,1.01c0.88,0,1.63-0.34,2.23-1.01c0.6-0.68,0.9-1.66,0.9-2.94
		c0-1.25-0.3-2.22-0.9-2.9c-0.6-0.68-1.34-1.01-2.23-1.01c-0.88,0-1.63,0.34-2.23,1.01C179.9,53.09,179.59,54.06,179.59,55.33z" />
		<path class="st0" d="M204.27,61.74h-3.39V55.2c0-1.38-0.07-2.28-0.22-2.68c-0.14-0.41-0.38-0.72-0.71-0.95
		c-0.33-0.23-0.72-0.34-1.18-0.34c-0.59,0-1.11,0.16-1.58,0.48c-0.47,0.32-0.79,0.75-0.96,1.28c-0.17,0.53-0.26,1.51-0.26,2.94v5.8
		h-3.39V48.92h3.15v1.88c1.12-1.45,2.53-2.17,4.22-2.17c0.75,0,1.43,0.13,2.05,0.4c0.62,0.27,1.09,0.61,1.41,1.03
		c0.32,0.42,0.54,0.89,0.66,1.42c0.12,0.53,0.19,1.29,0.19,2.28V61.74z" />
		<path class="st0" d="M208.01,62.58l3.87,0.47c0.06,0.45,0.21,0.76,0.45,0.93c0.32,0.24,0.83,0.36,1.52,0.36
		c0.88,0,1.55-0.13,1.99-0.4c0.3-0.18,0.52-0.46,0.68-0.86c0.1-0.28,0.16-0.8,0.16-1.56v-1.87c-1.01,1.38-2.29,2.08-3.84,2.08
		c-1.72,0-3.08-0.73-4.09-2.18c-0.79-1.15-1.18-2.58-1.18-4.3c0-2.15,0.52-3.79,1.55-4.92c1.03-1.13,2.32-1.7,3.85-1.7
		c1.58,0,2.89,0.7,3.92,2.09v-1.8h3.17v11.5c0,1.51-0.12,2.64-0.37,3.39c-0.25,0.75-0.6,1.33-1.05,1.76c-0.45,0.43-1.05,0.76-1.8,1
		c-0.75,0.24-1.7,0.36-2.85,0.36c-2.17,0-3.71-0.37-4.62-1.12c-0.91-0.74-1.36-1.69-1.36-2.83C208,62.88,208,62.74,208.01,62.58z
		 M211.04,55.07c0,1.36,0.26,2.35,0.79,2.99c0.53,0.63,1.18,0.95,1.95,0.95c0.83,0,1.53-0.32,2.1-0.97
		c0.57-0.65,0.86-1.61,0.86-2.88c0-1.33-0.27-2.31-0.82-2.96c-0.55-0.64-1.24-0.97-2.08-0.97c-0.81,0-1.48,0.32-2.01,0.95
		C211.3,52.81,211.04,53.77,211.04,55.07z" />
		<path class="st0" d="M231.43,61.74V44.05h3.57v17.69H231.43z" />
		<path class="st0" d="M237.81,58.08l3.4-0.52c0.14,0.66,0.44,1.16,0.88,1.5c0.44,0.34,1.06,0.51,1.86,0.51
		c0.88,0,1.54-0.16,1.98-0.48c0.3-0.23,0.45-0.53,0.45-0.9c0-0.26-0.08-0.47-0.24-0.64c-0.17-0.16-0.55-0.31-1.13-0.45
		c-2.73-0.6-4.47-1.15-5.2-1.65c-1.01-0.69-1.52-1.65-1.52-2.88c0-1.11,0.44-2.04,1.32-2.8c0.88-0.76,2.24-1.13,4.08-1.13
		c1.75,0,3.06,0.29,3.91,0.86c0.85,0.57,1.44,1.42,1.76,2.53l-3.2,0.59c-0.14-0.5-0.4-0.88-0.78-1.15s-0.93-0.4-1.63-0.4
		c-0.89,0-1.53,0.12-1.92,0.37c-0.26,0.18-0.39,0.41-0.39,0.69c0,0.24,0.11,0.45,0.34,0.62c0.31,0.23,1.36,0.54,3.17,0.95
		c1.81,0.41,3.07,0.91,3.78,1.51c0.71,0.6,1.06,1.44,1.06,2.52c0,1.17-0.49,2.18-1.47,3.03c-0.98,0.84-2.43,1.27-4.36,1.27
		c-1.75,0-3.13-0.35-4.14-1.06C238.79,60.26,238.12,59.3,237.81,58.08z" />
		<path class="st0" d="M253.36,61.74V44.05h3.39v17.69H253.36z" />
		<path class="st0" d="M263.38,52.83l-3.08-0.55c0.35-1.24,0.94-2.16,1.79-2.75c0.84-0.6,2.1-0.89,3.76-0.89
		c1.51,0,2.64,0.18,3.38,0.54c0.74,0.36,1.26,0.81,1.56,1.36c0.3,0.55,0.45,1.56,0.45,3.03l-0.04,3.96c0,1.13,0.05,1.96,0.16,2.49
		c0.11,0.54,0.31,1.11,0.61,1.72h-3.35c-0.09-0.23-0.2-0.56-0.33-1c-0.06-0.2-0.1-0.33-0.12-0.4c-0.58,0.56-1.2,0.99-1.86,1.27
		c-0.66,0.28-1.36,0.42-2.11,0.42c-1.32,0-2.36-0.36-3.12-1.07c-0.76-0.72-1.14-1.62-1.14-2.71c0-0.72,0.17-1.37,0.52-1.94
		c0.35-0.57,0.83-1,1.45-1.3s1.52-0.57,2.7-0.79c1.58-0.3,2.68-0.57,3.29-0.83v-0.34c0-0.65-0.16-1.12-0.48-1.39
		c-0.32-0.28-0.93-0.42-1.82-0.42c-0.6,0-1.07,0.12-1.41,0.36C263.86,51.82,263.59,52.24,263.38,52.83z M267.91,55.58
		c-0.43,0.14-1.12,0.32-2.06,0.52c-0.94,0.2-1.56,0.4-1.85,0.59c-0.44,0.31-0.66,0.71-0.66,1.19c0,0.47,0.18,0.88,0.53,1.23
		c0.35,0.35,0.8,0.52,1.35,0.52c0.61,0,1.19-0.2,1.75-0.6c0.41-0.31,0.68-0.68,0.81-1.12c0.09-0.29,0.13-0.84,0.13-1.65V55.58z" />
		<path class="st0" d="M286.86,61.74h-3.39V55.2c0-1.38-0.07-2.28-0.22-2.68c-0.14-0.41-0.38-0.72-0.71-0.95
		c-0.33-0.23-0.72-0.34-1.18-0.34c-0.59,0-1.11,0.16-1.58,0.48c-0.47,0.32-0.79,0.75-0.96,1.28c-0.17,0.53-0.26,1.51-0.26,2.94v5.8
		h-3.39V48.92h3.15v1.88c1.12-1.45,2.53-2.17,4.22-2.17c0.75,0,1.43,0.13,2.05,0.4c0.62,0.27,1.09,0.61,1.41,1.03
		c0.32,0.42,0.54,0.89,0.66,1.42c0.12,0.53,0.19,1.29,0.19,2.28V61.74z" />
		<path class="st0" d="M302.66,61.74h-3.15v-1.88c-0.52,0.73-1.14,1.28-1.85,1.63c-0.71,0.36-1.43,0.54-2.15,0.54
		c-1.47,0-2.73-0.59-3.78-1.78c-1.05-1.19-1.57-2.84-1.57-4.96c0-2.17,0.51-3.82,1.53-4.95c1.02-1.13,2.31-1.7,3.87-1.7
		c1.43,0,2.67,0.6,3.72,1.79v-6.37h3.39V61.74z M293.62,55.05c0,1.37,0.19,2.36,0.57,2.97c0.55,0.88,1.31,1.33,2.29,1.33
		c0.78,0,1.44-0.33,1.99-1s0.82-1.65,0.82-2.97c0-1.47-0.27-2.53-0.8-3.18c-0.53-0.65-1.21-0.97-2.04-0.97
		c-0.8,0-1.48,0.32-2.02,0.96C293.89,52.83,293.62,53.78,293.62,55.05z" />
	</g>
	<g>
		<path class="st0" d="M425.92,159.77h5.89c1.33,0,2.34,0.1,3.04,0.3c0.94,0.28,1.74,0.77,2.41,1.47c0.67,0.7,1.18,1.57,1.53,2.59
		c0.35,1.02,0.52,2.28,0.52,3.78c0,1.31-0.16,2.45-0.49,3.4c-0.4,1.16-0.97,2.1-1.71,2.82c-0.56,0.54-1.31,0.97-2.27,1.27
		c-0.71,0.23-1.66,0.34-2.85,0.34h-6.07V159.77z M429.14,162.47v10.58h2.41c0.9,0,1.55-0.05,1.95-0.15c0.52-0.13,0.96-0.35,1.3-0.66
		c0.34-0.31,0.63-0.83,0.84-1.54c0.22-0.72,0.33-1.69,0.33-2.93c0-1.23-0.11-2.18-0.33-2.84c-0.22-0.66-0.52-1.18-0.92-1.55
		c-0.39-0.37-0.89-0.62-1.49-0.75c-0.45-0.1-1.33-0.15-2.65-0.15H429.14z" />
		<path class="st0" d="M445.51,175.74h-3.06v-11.57h2.84v1.65c0.49-0.78,0.92-1.29,1.31-1.54c0.39-0.25,0.83-0.37,1.32-0.37
		c0.7,0,1.37,0.19,2.02,0.58l-0.95,2.67c-0.52-0.33-0.99-0.5-1.44-0.5c-0.43,0-0.79,0.12-1.09,0.35c-0.3,0.24-0.53,0.66-0.7,1.28
		c-0.17,0.62-0.26,1.91-0.26,3.88V175.74z" />
		<path class="st0" d="M459.44,175.74v-1.73c-0.42,0.62-0.98,1.1-1.66,1.46c-0.69,0.36-1.41,0.53-2.17,0.53
		c-0.78,0-1.47-0.17-2.09-0.51c-0.62-0.34-1.06-0.82-1.34-1.44c-0.28-0.62-0.41-1.47-0.41-2.56v-7.32h3.06v5.32
		c0,1.63,0.06,2.62,0.17,2.99c0.11,0.37,0.32,0.66,0.62,0.87c0.3,0.21,0.68,0.32,1.13,0.32c0.52,0,0.99-0.14,1.41-0.43
		c0.41-0.29,0.7-0.64,0.85-1.07c0.15-0.42,0.23-1.47,0.23-3.12v-4.88h3.06v11.57H459.44z" />
		<path class="st0" d="M465.78,164.17h2.82v1.58c1.01-1.23,2.21-1.84,3.61-1.84c0.74,0,1.38,0.15,1.93,0.46
		c0.54,0.3,0.99,0.77,1.34,1.38c0.51-0.62,1.06-1.08,1.64-1.38c0.59-0.31,1.22-0.46,1.88-0.46c0.85,0,1.57,0.17,2.16,0.52
		c0.59,0.35,1.03,0.85,1.32,1.52c0.21,0.49,0.32,1.29,0.32,2.4v7.4h-3.06v-6.61c0-1.15-0.11-1.89-0.32-2.22
		c-0.28-0.44-0.72-0.65-1.31-0.65c-0.43,0-0.83,0.13-1.21,0.39c-0.38,0.26-0.65,0.64-0.82,1.15c-0.17,0.5-0.25,1.3-0.25,2.39v5.56
		h-3.06v-6.34c0-1.13-0.05-1.85-0.16-2.18c-0.11-0.33-0.28-0.57-0.51-0.73c-0.23-0.16-0.54-0.24-0.93-0.24
		c-0.47,0-0.9,0.13-1.27,0.38c-0.38,0.25-0.65,0.62-0.81,1.1c-0.16,0.48-0.25,1.27-0.25,2.39v5.62h-3.06V164.17z" />
		<path class="st0" d="M507.31,173.79l-1.85,2.36c-0.91-0.44-1.78-1.05-2.61-1.83c-0.65,0.58-1.33,1.01-2.06,1.29
		c-0.73,0.28-1.59,0.41-2.59,0.41c-1.99,0-3.49-0.56-4.49-1.68c-0.78-0.86-1.17-1.86-1.17-2.99c0-1.02,0.3-1.94,0.92-2.76
		s1.52-1.53,2.73-2.13c-0.54-0.65-0.96-1.26-1.23-1.85c-0.28-0.58-0.41-1.14-0.41-1.66c0-0.97,0.39-1.79,1.16-2.46
		c0.77-0.67,1.88-1.01,3.31-1.01c1.38,0,2.46,0.35,3.24,1.06c0.78,0.7,1.17,1.57,1.17,2.58c0,0.65-0.19,1.26-0.58,1.84
		c-0.39,0.58-1.16,1.24-2.33,1.97l2.22,2.93c0.26-0.46,0.49-1.07,0.68-1.82l2.77,0.63c-0.28,0.98-0.52,1.7-0.72,2.15
		c-0.2,0.45-0.42,0.83-0.65,1.14c0.34,0.32,0.78,0.67,1.32,1.05C506.66,173.41,507.06,173.67,507.31,173.79z M497.78,168.43
		c-0.7,0.36-1.23,0.78-1.58,1.29s-0.52,1.01-0.52,1.54c0,0.66,0.22,1.2,0.65,1.62c0.43,0.42,1.01,0.63,1.74,0.63
		c0.48,0,0.94-0.09,1.38-0.28s0.93-0.5,1.45-0.94L497.78,168.43z M498.98,165.11l0.83-0.63c0.61-0.47,0.92-0.94,0.92-1.41
		c0-0.39-0.15-0.73-0.44-1c-0.29-0.28-0.69-0.41-1.19-0.41c-0.49,0-0.87,0.12-1.14,0.36c-0.28,0.24-0.41,0.52-0.41,0.84
		c0,0.38,0.23,0.84,0.7,1.37L498.98,165.11z" />
		<path class="st0" d="M516.62,159.77h6.38c1.26,0,2.21,0.05,2.83,0.16c0.62,0.11,1.18,0.32,1.67,0.66c0.49,0.33,0.9,0.78,1.23,1.33
		c0.33,0.56,0.49,1.18,0.49,1.87c0,0.75-0.2,1.43-0.6,2.06c-0.4,0.62-0.95,1.09-1.64,1.41c0.97,0.28,1.72,0.77,2.24,1.45
		c0.52,0.68,0.78,1.49,0.78,2.41c0,0.73-0.17,1.43-0.51,2.12c-0.34,0.69-0.8,1.23-1.38,1.64c-0.58,0.41-1.31,0.66-2.16,0.76
		c-0.54,0.06-1.83,0.09-3.89,0.11h-5.44V159.77z M519.85,162.43v3.69h2.11c1.26,0,2.04-0.02,2.34-0.05c0.55-0.07,0.99-0.26,1.3-0.57
		c0.32-0.32,0.47-0.73,0.47-1.25c0-0.49-0.14-0.9-0.41-1.2c-0.27-0.31-0.68-0.5-1.21-0.56c-0.32-0.04-1.24-0.05-2.76-0.05H519.85z
		 M519.85,168.78v4.27h2.99c1.16,0,1.9-0.03,2.21-0.1c0.48-0.09,0.87-0.3,1.17-0.64c0.3-0.34,0.45-0.79,0.45-1.36
		c0-0.48-0.12-0.89-0.35-1.22c-0.23-0.33-0.57-0.58-1.01-0.73c-0.44-0.15-1.39-0.23-2.86-0.23H519.85z" />
		<path class="st0" d="M540.88,175.74v-1.73c-0.42,0.62-0.98,1.1-1.66,1.46c-0.69,0.36-1.41,0.53-2.17,0.53
		c-0.78,0-1.47-0.17-2.09-0.51c-0.62-0.34-1.06-0.82-1.34-1.44c-0.28-0.62-0.41-1.47-0.41-2.56v-7.32h3.06v5.32
		c0,1.63,0.06,2.62,0.17,2.99c0.11,0.37,0.32,0.66,0.62,0.87c0.3,0.21,0.68,0.32,1.13,0.32c0.52,0,0.99-0.14,1.41-0.43
		c0.41-0.29,0.7-0.64,0.85-1.07s0.23-1.47,0.23-3.12v-4.88h3.06v11.57H540.88z" />
		<path class="st0" d="M547.17,176.5l3.5,0.42c0.06,0.41,0.19,0.69,0.4,0.84c0.29,0.22,0.75,0.33,1.37,0.33c0.8,0,1.4-0.12,1.8-0.36
		c0.27-0.16,0.47-0.42,0.61-0.77c0.09-0.25,0.14-0.72,0.14-1.41v-1.69c-0.92,1.25-2.07,1.87-3.46,1.87c-1.55,0-2.79-0.66-3.69-1.97
		c-0.71-1.04-1.07-2.33-1.07-3.88c0-1.94,0.47-3.42,1.4-4.45c0.93-1.02,2.09-1.54,3.48-1.54c1.43,0,2.61,0.63,3.54,1.88v-1.62h2.87
		v10.38c0,1.37-0.11,2.39-0.34,3.06c-0.23,0.68-0.54,1.21-0.95,1.59c-0.41,0.38-0.95,0.69-1.63,0.9c-0.68,0.22-1.54,0.33-2.58,0.33
		c-1.96,0-3.35-0.34-4.17-1.01c-0.82-0.67-1.23-1.52-1.23-2.56C547.16,176.77,547.16,176.65,547.17,176.5z M549.9,169.71
		c0,1.23,0.24,2.13,0.71,2.7c0.48,0.57,1.06,0.86,1.76,0.86c0.75,0,1.38-0.29,1.9-0.88c0.52-0.58,0.77-1.45,0.77-2.6
		c0-1.2-0.25-2.09-0.74-2.67c-0.49-0.58-1.12-0.87-1.87-0.87c-0.73,0-1.34,0.29-1.81,0.86C550.14,167.68,549.9,168.55,549.9,169.71z
		" />
		<path class="st0" d="M561.64,175.74v-15.97h3.06v15.97H561.64z" />
		<path class="st0" d="M575.1,172.06l3.05,0.51c-0.39,1.12-1.01,1.97-1.86,2.55c-0.85,0.58-1.91,0.88-3.18,0.88
		c-2.01,0-3.5-0.66-4.47-1.97c-0.76-1.05-1.14-2.38-1.14-3.99c0-1.92,0.5-3.42,1.5-4.51c1-1.09,2.27-1.63,3.8-1.63
		c1.72,0,3.08,0.57,4.07,1.71c0.99,1.14,1.47,2.88,1.43,5.22h-7.67c0.02,0.91,0.27,1.61,0.74,2.12c0.47,0.5,1.06,0.76,1.77,0.76
		c0.48,0,0.88-0.13,1.21-0.39C574.68,173.06,574.93,172.64,575.1,172.06z M575.27,168.96c-0.02-0.89-0.25-1.56-0.69-2.02
		c-0.44-0.46-0.97-0.69-1.59-0.69c-0.67,0-1.22,0.24-1.66,0.73c-0.44,0.49-0.65,1.15-0.64,1.98H575.27z" />
		<path class="st0" d="M598.36,169.87l3.13,0.99c-0.48,1.74-1.28,3.04-2.39,3.88c-1.11,0.85-2.53,1.27-4.24,1.27
		c-2.12,0-3.86-0.72-5.23-2.17c-1.37-1.45-2.05-3.43-2.05-5.94c0-2.66,0.69-4.72,2.06-6.19c1.37-1.47,3.18-2.21,5.41-2.21
		c1.95,0,3.54,0.58,4.76,1.73c0.73,0.68,1.27,1.66,1.63,2.94l-3.19,0.76c-0.19-0.83-0.58-1.48-1.18-1.96
		c-0.6-0.48-1.33-0.72-2.18-0.72c-1.18,0-2.14,0.42-2.88,1.27c-0.74,0.85-1.11,2.23-1.11,4.13c0,2.02,0.36,3.46,1.09,4.31
		c0.73,0.86,1.67,1.29,2.83,1.29c0.86,0,1.59-0.27,2.21-0.82C597.65,171.89,598.09,171.04,598.36,169.87z" />
		<path class="st0" d="M604.08,169.79c0-1.02,0.25-2,0.75-2.95c0.5-0.95,1.21-1.68,2.13-2.18c0.92-0.5,1.94-0.75,3.08-0.75
		c1.75,0,3.19,0.57,4.3,1.71c1.12,1.14,1.68,2.57,1.68,4.31c0,1.75-0.57,3.2-1.69,4.35c-1.13,1.15-2.55,1.73-4.27,1.73
		c-1.06,0-2.07-0.24-3.03-0.72c-0.96-0.48-1.69-1.18-2.2-2.11C604.33,172.25,604.08,171.12,604.08,169.79z M607.22,169.95
		c0,1.15,0.27,2.03,0.82,2.64c0.54,0.61,1.22,0.92,2.02,0.92s1.47-0.31,2.01-0.92c0.54-0.61,0.81-1.5,0.81-2.66
		c0-1.13-0.27-2-0.81-2.61c-0.54-0.61-1.21-0.92-2.01-0.92s-1.47,0.3-2.02,0.92C607.49,167.93,607.22,168.81,607.22,169.95z" />
		<path class="st0" d="M621.91,175.74h-3.06v-11.57h2.84v1.65c0.49-0.78,0.92-1.29,1.31-1.54c0.39-0.25,0.83-0.37,1.32-0.37
		c0.7,0,1.37,0.19,2.02,0.58l-0.95,2.67c-0.52-0.33-0.99-0.5-1.44-0.5c-0.43,0-0.79,0.12-1.09,0.35c-0.3,0.24-0.53,0.66-0.7,1.28
		c-0.17,0.62-0.26,1.91-0.26,3.88V175.74z" />
		<path class="st0" d="M628.13,164.17h2.85v1.7c0.37-0.58,0.87-1.05,1.5-1.42c0.63-0.36,1.33-0.54,2.1-0.54
		c1.34,0,2.48,0.53,3.42,1.58c0.94,1.05,1.41,2.52,1.41,4.4c0,1.93-0.47,3.43-1.42,4.5c-0.94,1.07-2.09,1.61-3.43,1.61
		c-0.64,0-1.22-0.13-1.74-0.38c-0.52-0.25-1.07-0.69-1.64-1.31v5.83h-3.06V164.17z M631.16,169.76c0,1.3,0.26,2.26,0.77,2.88
		c0.52,0.62,1.14,0.93,1.88,0.93c0.71,0,1.3-0.28,1.78-0.86c0.47-0.57,0.71-1.51,0.71-2.81c0-1.21-0.24-2.11-0.73-2.7
		c-0.49-0.59-1.09-0.88-1.81-0.88c-0.75,0-1.37,0.29-1.86,0.87C631.41,167.77,631.16,168.62,631.16,169.76z" />
		<path class="st0" d="M641.33,172.44l3.07-0.47c0.13,0.6,0.4,1.05,0.8,1.36c0.4,0.31,0.96,0.46,1.68,0.46
		c0.79,0,1.39-0.15,1.79-0.44c0.27-0.2,0.4-0.48,0.4-0.82c0-0.23-0.07-0.42-0.22-0.58c-0.15-0.15-0.49-0.28-1.02-0.4
		c-2.47-0.54-4.03-1.04-4.7-1.49c-0.92-0.62-1.37-1.49-1.37-2.6c0-1,0.4-1.84,1.19-2.53c0.79-0.68,2.02-1.02,3.68-1.02
		c1.58,0,2.76,0.26,3.53,0.77c0.77,0.52,1.3,1.28,1.59,2.29l-2.89,0.53c-0.12-0.45-0.36-0.8-0.7-1.04
		c-0.35-0.24-0.84-0.36-1.48-0.36c-0.81,0-1.38,0.11-1.73,0.34c-0.23,0.16-0.35,0.37-0.35,0.62c0,0.22,0.1,0.4,0.31,0.56
		c0.28,0.2,1.23,0.49,2.86,0.86c1.63,0.37,2.77,0.82,3.42,1.36c0.64,0.54,0.96,1.3,0.96,2.28c0,1.06-0.44,1.97-1.33,2.73
		c-0.89,0.76-2.2,1.14-3.93,1.14c-1.58,0-2.82-0.32-3.74-0.96C642.21,174.4,641.61,173.54,641.33,172.44z" />
	</g>
</svg>