<?xml version="1.0" encoding="utf-8"?>
<svg version="1.1" id="vector" xmlns="http://www.w3.org/2000/svg" xmlns:xlink="http://www.w3.org/1999/xlink" x="13.25px" y="7.5px" viewBox="13.25 7.5 195.75 197" style="" xml:space="preserved">
	<style type="text/css">
	.st0{fill:#125491;}
	.st1{fill:#F87C39;}
</style>
	<g>
		<!-- <circle class="st0" cx="110.89" cy="105.19" r="44.19"/> -->
		<circle class="st1" cx="110.89" cy="105.19" r="44.19" />
		<path class="st0" d="M158.33,20.17l-19.37,33.55c-3.18,5.52-9.69,8.09-15.84,6.42c-0.13-0.04-0.26-0.07-0.39-0.1
		c-6.13-1.6-10.42-7.12-10.42-13.46V7.86C129.01,8.09,144.68,12.53,158.33,20.17z" />
		<path class="st0" d="M63.44,190.21l19.37-33.55c3.18-5.52,9.69-8.09,15.84-6.42c0.13,0.04,0.26,0.07,0.39,0.1
		c6.13,1.6,10.42,7.12,10.42,13.46v38.72C92.77,202.28,77.09,197.84,63.44,190.21z" />
		<path class="st0" d="M109.47,7.84l0,38.74c0,6.37-4.35,11.85-10.5,13.48c-0.13,0.03-0.26,0.07-0.39,0.11
		c-6.11,1.68-12.59-0.95-15.76-6.44L63.45,20.19C78.03,12.04,93.83,8.05,109.47,7.84z" />
		<path class="st0" d="M112.31,202.54l0-38.74c0-6.37,4.35-11.85,10.5-13.48c0.13-0.03,0.26-0.07,0.39-0.11
		c6.11-1.68,12.59,0.95,15.76,6.44l19.36,33.53C143.75,198.33,127.95,202.33,112.31,202.54z" />
		<path class="st0" d="M60.98,21.59l19.37,33.55c3.18,5.52,2.16,12.44-2.35,16.93c-0.1,0.1-0.19,0.19-0.29,0.29
		c-4.46,4.51-11.38,5.47-16.87,2.3L27.31,55.29C35.86,40.95,47.55,29.59,60.98,21.59z" />
		<path class="st0" d="M160.8,188.79l-19.37-33.55c-3.18-5.52-2.16-12.44,2.35-16.93c0.1-0.1,0.19-0.19,0.29-0.29
		c4.46-4.51,11.38-5.47,16.87-2.3l33.53,19.36C185.92,169.43,174.23,180.78,160.8,188.79z" />
		<path class="st0" d="M25.87,57.74l33.55,19.37c5.52,3.18,8.09,9.69,6.42,15.84c-0.04,0.13-0.07,0.26-0.1,0.39
		c-1.6,6.13-7.12,10.42-13.46,10.42H13.56C13.79,87.07,18.23,71.39,25.87,57.74z" />
		<path class="st0" d="M195.91,152.63l-33.55-19.37c-5.52-3.18-8.09-9.69-6.42-15.84c0.04-0.13,0.07-0.26,0.1-0.39
		c1.6-6.13,7.12-10.42,13.46-10.42h38.72C207.98,123.31,203.54,138.99,195.91,152.63z" />
		<path class="st0" d="M13.54,106.61l38.74,0c6.37,0,11.85,4.35,13.48,10.5c0.03,0.13,0.07,0.26,0.11,0.39
		c1.68,6.11-0.95,12.59-6.44,15.76l-33.53,19.36C17.74,138.05,13.75,122.25,13.54,106.61z" />
		<path class="st0" d="M208.24,103.77l-38.74,0c-6.37,0-11.85-4.35-13.48-10.5c-0.03-0.13-0.07-0.26-0.11-0.39
		c-1.68-6.11,0.95-12.59,6.44-15.76l33.53-19.36C204.03,72.33,208.03,88.13,208.24,103.77z" />
		<path class="st0" d="M27.29,155.1l33.55-19.37c5.52-3.18,12.44-2.16,16.93,2.35c0.1,0.1,0.19,0.19,0.29,0.29
		c4.51,4.46,5.47,11.38,2.3,16.87l-19.36,33.53C46.65,180.22,35.29,168.53,27.29,155.1z" />
		<path class="st0" d="M194.49,55.28l-33.55,19.37c-5.52,3.18-12.44,2.16-16.93-2.35c-0.1-0.1-0.19-0.19-0.29-0.29
		c-4.51-4.46-5.47-11.38-2.3-16.87l19.36-33.53C175.13,30.16,186.48,41.85,194.49,55.28z" />
	</g>
</svg>